<?xml version="1.0" encoding="UTF-8" standalone="no"?>
<!-- Created with Inkscape (http://www.inkscape.org/) -->

<svg
   width="35.506027mm"
   height="36.193634mm"
   viewBox="0 0 35.506027 36.193634"
   version="1.1"
   id="svg320"
   inkscape:export-filename="unstract_fav.png"
   inkscape:export-xdpi="96.143982"
   inkscape:export-ydpi="96.143982"
   xmlns:inkscape="http://www.inkscape.org/namespaces/inkscape"
   xmlns:sodipodi="http://sodipodi.sourceforge.net/DTD/sodipodi-0.dtd"
   xmlns="http://www.w3.org/2000/svg"
   xmlns:svg="http://www.w3.org/2000/svg">
  <sodipodi:namedview
     id="namedview322"
     pagecolor="#ffffff"
     bordercolor="#000000"
     borderopacity="0.25"
     inkscape:showpageshadow="2"
     inkscape:pageopacity="0.0"
     inkscape:pagecheckerboard="0"
     inkscape:deskcolor="#d1d1d1"
     inkscape:document-units="mm"
     showgrid="false" />
  <defs
     id="defs317">
    <clipPath
       id="clip0_52_21684">
      <rect
         width="134.196"
         height="139.032"
         fill="#ffffff"
         id="rect28"
         x="0"
         y="0" />
    </clipPath>
  </defs>
  <g
     inkscape:label="Layer 1"
     inkscape:groupmode="layer"
     id="layer1"
     transform="translate(-15.773783,-16.445943)">
    <g
       clip-path="url(#clip0_52_21684)"
       id="g26"
       transform="matrix(0.26458333,0,0,0.26458333,15.773784,15.854652)">
      <path
         d="m 112.098,8.10533 -5.87,5.86417 -0.005,30.4502 c -0.003,23.1535 -0.01,30.5434 -0.024,30.8371 -0.061,1.2793 -0.099,1.8874 -0.161,2.6297 -0.359,4.2611 -1.205,8.4369 -2.542,12.5591 -0.052,0.1595 -0.092,0.289 -0.09,0.289 0.019,0 1.111,-1.1766 1.532,-1.6504 5.122,-5.7568 8.912,-12.616 11.029,-19.9632 1.13,-3.92 1.775,-7.881 1.96,-12.0269 0.048,-1.0834 0.049,-2.0863 0.044,-28.3386 L 117.967,2.24272 Z"
         fill="#7fb800"
         id="path18" />
      <path
         d="m 122.444,29.3604 c -0.003,20.5902 -0.009,27.2188 -0.024,27.5126 -0.068,1.4025 -0.098,1.8968 -0.169,2.7481 -0.79,9.4067 -3.968,18.4565 -9.241,26.328 -2.065,3.0814 -4.368,5.88 -7.02,8.5286 -2.113,2.1132 -4.276,3.9626 -6.6951,5.7253 -0.1296,0.095 -0.2972,0.226 -0.3715,0.291 -0.1486,0.129 -0.313,0.243 -0.4379,0.307 -0.0459,0.023 -0.1929,0.117 -0.3241,0.209 -2.4632,1.709 -5.2189,3.295 -8.0126,4.613 -6.6434,3.134 -13.8195,4.915 -21.2092,5.264 -1.6537,0.078 -3.6758,0.081 -5.3121,0.008 -4.4853,-0.202 -8.8584,-0.919 -13.1777,-2.164 -0.664,-0.191 -2.1344,-0.647 -2.351,-0.729 -0.0664,-0.025 1.0277,0.984 1.7581,1.622 4.4727,3.907 9.66,7.037 15.1603,9.151 4.9169,1.89 10.0583,2.993 15.3136,3.286 1.0324,0.057 1.3296,0.064 2.9881,0.064 1.6585,0 1.9557,-0.007 2.9881,-0.064 9.5793,-0.535 18.757,-3.759 26.577,-9.338 3.087,-2.204 5.951,-4.773 8.475,-7.61 5.249,-5.894 9.034,-12.8748 11.088,-20.4511 0.939,-3.4683 1.507,-7.0739 1.685,-10.716 0.01,-0.1863 0.026,-0.518 0.035,-0.7344 0.014,-0.2969 0.021,-7.7499 0.024,-29.8184 l 0.005,-29.4236 -5.874,-5.86735 -5.873,-5.86735 z"
         fill="#00a6ed"
         id="path20" />
      <path
         d="M 0.00474302,46.5518 C 0.00790503,67.5147 0.014229,74.7624 0.0284581,75.0514 0.0837933,76.2328 0.120156,76.8251 0.181816,77.5595 0.812637,85.033 3.12565,92.3218 6.93429,98.8383 c 0.98022,1.6787 2.06954,3.3187 3.22211,4.8547 0.9834,1.311 2.0252,2.573 3.0908,3.743 1.121,1.229 2.5945,2.693 3.698,3.671 l 0.1138,0.099 -0.0458,-0.099 c -0.0253,-0.055 -0.1075,-0.237 -0.1834,-0.401 -1.4055,-3.058 -2.5565,-6.319 -3.3833,-9.586 -1.0198,-4.0348 -1.57,-8.0527 -1.6838,-12.3202 C 11.7532,88.4429 11.7469,77.4473 11.7469,59.2025 V 30.1737 L 5.87344,24.3064 0,18.4391 Z"
         fill="#ff4d6d"
         id="path22" />
      <path
         d="m 22.0915,24.3096 -5.8703,5.8642 v 28.8234 c 0,18.2401 0.0063,29.073 0.0158,29.5026 0.0221,1.0092 0.0601,1.8162 0.1265,2.7244 0.5612,7.6583 2.8221,15.0638 6.6291,21.7158 1.9383,3.388 4.2545,6.549 6.9027,9.421 0.9296,1.006 2.0253,2.101 3.0308,3.025 8.169,7.513 18.4993,12.194 29.4604,13.353 3.287,0.346 6.7494,0.384 10.0473,0.109 7.709,-0.641 15.2267,-3.032 21.9238,-6.974 4.3794,-2.576 8.3504,-5.777 11.8074,-9.513 0.373,-0.404 0.966,-1.069 0.959,-1.077 -0.003,-0.003 -0.11,0.044 -0.237,0.106 -0.855,0.408 -2.063,0.93 -3.126,1.352 -7.4587,2.958 -15.3732,4.23 -23.5881,3.789 -2.664,-0.144 -5.3486,-0.487 -7.9778,-1.019 -6.0473,-1.225 -11.8528,-3.471 -17.1839,-6.646 -6.2292,-3.71 -11.7264,-8.663 -16.071,-14.478 -0.1881,-0.253 -0.4047,-0.546 -0.4838,-0.654 -0.0774,-0.107 -0.1802,-0.24 -0.2292,-0.295 -0.1249,-0.136 -0.2008,-0.242 -0.3051,-0.423 -0.0506,-0.086 -0.1676,-0.267 -0.2609,-0.403 -0.936,-1.354 -1.9209,-2.9392 -2.7557,-4.4396 C 31.1095,91.3584 28.8202,83.8738 28.1673,76.1412 28.0945,75.2947 28.0582,74.685 27.9965,73.3773 27.9823,73.0709 27.976,66.4455 27.9696,45.71 L 27.9602,18.447 Z"
         fill="#ffb400"
         id="path24" />
    </g>
  </g>
</svg>
